<svg viewBox="0 0 300 300.621" xmlns="http://www.w3.org/2000/svg"><path d="M175 237.62v-16.124a98.625 98.625 0 0 0 45.625-25.75 100.625 100.625 0 0 0 28.5-58.125 103 103 0 0 0 .875-12.5 103.25 103.25 0 0 0-.875-12.5 100 100 0 0 0-16-43 61.75 61.75 0 0 0-4.375-5.624 94.375 94.375 0 0 0-8-9.25H220a96.625 96.625 0 0 0-69.375-29.625H150a100 100 0 0 0-19.25 1.626A100 100 0 0 0 79.5 54.12a116.5 116.5 0 0 0-8.125 9.5 101.375 101.375 0 0 0-19.5 42c0 2.25 0 4.626-.875 7a100.75 100.75 0 0 0-1 12.5v.876a98.625 98.625 0 0 0 44.25 82.5 98.125 98.125 0 0 0 30.75 13.25v15.875H25v37.5h250v-37.5zm-39.625-39A75 75 0 0 1 76.5 139.747a12.5 12.5 0 0 1 0-2.125h11v-25H76.25a75 75 0 0 1 4.5-16.25A72.375 72.375 0 0 1 89 81.87l8 7.876 17.625-17.625-8-8 1.75-1.5A75 75 0 0 1 137.5 51.247V62.62h25V51.247a77.375 77.375 0 0 1 30.875 12.5l-8 8L203 89.37l8-8a77.375 77.375 0 0 1 12.5 30.876h-11v25h11.375a75 75 0 0 1-45.125 56.75 73.75 73.75 0 0 1-43.375 4.625zm-4.125-36a17.375 17.375 0 0 0 6.25 13.126 18.125 18.125 0 0 0 26.25 0 17.375 17.375 0 0 0 5-13.125C166.625 138.87 150 68.87 150 68.87s-16.625 70-18.75 93.75z"/></svg>