<svg fill="none" height="24" viewBox="0 0 24 24" width="24" xmlns="http://www.w3.org/2000/svg"><g stroke="#141b34" stroke-linecap="round" stroke-width="1.5"><path d="m12 3v1.5"/><path d="m17 13c0-2.7614-2.2386-5-5-5-2.76142 0-5 2.2386-5 5"/><path d="m5.98828 6.98926-1.06066-1.06066"/><path d="m22 13h-1.5"/><path d="m3.5 13h-1.5"/><path d="m19.0703 5.92871-1.0606 1.06066"/><path d="m6.5 16v3c0 .9428 0 1.4142.29289 1.7071.2929.2929.7643.2929 1.70711.2929.94281 0 1.41421 0 1.7071-.2929.2929-.2929.2929-.7643.2929-1.7071v-3"/><path d="m13.5 16 2 5 2-5" stroke-linejoin="round"/></g></svg>