<svg height="32" viewBox="0 0 32 32" width="32" xmlns="http://www.w3.org/2000/svg"><path d="m25 2-1.4141 1.4141 2.586 2.5859h-5.09a16.93 16.93 0 0 0 -6.3139 1.2158l-4.2787 1.7114a14.93 14.93 0 0 1 -5.5708 1.0728h-2.9185v2h2.9185a16.93 16.93 0 0 0 6.3139-1.2158l4.2783-1.7114a14.93 14.93 0 0 1 5.5708-1.0728h5.09l-2.586 2.5859 1.4145 1.4141 5-5z"/><path d="m21 11-1.4141 1.4141 2.586 2.5859h-3.2705a16.9422 16.9422 0 0 0 -5.9693 1.0825l-2.5664.9624a14.9456 14.9456 0 0 1 -5.2671.9551h-3.0986v2h3.0986a16.9422 16.9422 0 0 0 5.9693-1.0825l2.5664-.9624a14.9456 14.9456 0 0 1 5.2671-.9551h3.2705l-2.586 2.5859 1.4141 1.4141 5-5z"/><path d="m17 20-1.4141 1.4141 2.586 2.5859h-1.5752a16.9879 16.9879 0 0 0 -5.3765.8721l-1.0727.3584a14.9852 14.9852 0 0 1 -4.7442.7695h-3.4033v2h3.4033a16.9879 16.9879 0 0 0 5.3765-.8721l1.0727-.3584a14.9852 14.9852 0 0 1 4.7442-.7695h1.5752l-2.586 2.5859 1.4141 1.4141 5-5z"/><path d="m0 0h32v32h-32z" fill="none"/></svg>